M48
;GenerationSoftware,Autodesk,EAGLE,9.5.2*%
;CreationDate,2021-07-19T19:35:41Z*%
FMAT,2
ICI,OFF
METRIC,TZ,000.000
T4C0.300
T3C1.016
T2C3.000
T1C3.302
%
G90
M71
T1
X2540Y2540
X130048Y89408
X63500Y2540
X2540Y43180
X63500Y43180
X69088Y43180
X63500Y94996
X2540Y135636
X63500Y135636
X130048Y2540
X2540Y94996
X130048Y43180
X69088Y2540
X130048Y94996
X69088Y135636
X130048Y135636
X63500Y48768
X2540Y89408
X63500Y89408
X2540Y48768
X69088Y94996
X69088Y48768
X130048Y48768
X69088Y89408
T2
X126746Y128778
X15494Y38481
X60198Y36322
X59563Y6858
X126746Y36322
X82042Y38481
X126746Y82550
X126111Y6858
X15494Y84709
X126111Y99314
X15494Y130937
X60198Y128778
X59563Y99314
X126111Y53086
X59563Y53086
X60198Y82550
X82042Y84709
X82042Y130937
T3
X89408Y25400
X67818Y116586
X22860Y27940
X20320Y27940
X22860Y25400
X20320Y25400
X22860Y22860
X20320Y22860
X1270Y26670
X1270Y29210
X1270Y31750
X1270Y34290
X1270Y21590
X1270Y24130
X89408Y27940
X86868Y27940
X86868Y25400
X89408Y22860
X86868Y22860
X67818Y26670
X67818Y29210
X67818Y31750
X67818Y34290
X67818Y21590
X67818Y24130
X22860Y74168
X20320Y74168
X22860Y71628
X20320Y71628
X22860Y69088
X20320Y69088
X1270Y72898
X1270Y75438
X1270Y77978
X1270Y80518
X1270Y67818
X1270Y70358
X89408Y74168
X86868Y74168
X89408Y71628
X86868Y71628
X89408Y69088
X86868Y69088
X67818Y72898
X67818Y75438
X67818Y77978
X67818Y80518
X67818Y67818
X67818Y70358
X22860Y120396
X20320Y120396
X22860Y117856
X20320Y117856
X22860Y115316
X20320Y115316
X1270Y119126
X1270Y121666
X1270Y124206
X1270Y126746
X1270Y114046
X1270Y116586
X89408Y120396
X86868Y120396
X89408Y117856
X86868Y117856
X89408Y115316
X86868Y115316
X67818Y119126
X67818Y121666
X67818Y124206
X67818Y126746
X67818Y114046
T4
X79248Y25400
X84963Y21590
X13970Y51308
X15240Y51308
X16510Y51308
X17780Y51308
X19050Y51308
X6223Y62992
X2540Y84328
X2540Y83058
X3810Y81788
X3810Y80518
X12700Y79248
X13970Y79248
X15240Y79248
X5080Y74168
X5080Y72898
X5080Y71628
X5080Y70358
X12700Y75438
X12700Y74168
X12700Y72898
X13970Y72898
X15240Y72898
X15240Y74168
X13970Y74168
X13970Y75438
X15240Y75438
X7620Y51308
X8890Y51308
X8890Y50038
X7620Y50038
X6350Y50038
X12700Y61468
X20320Y54483
X21590Y54483
X22860Y54483
X24130Y53848
X16129Y47117
X17399Y47117
X16129Y48387
X17399Y48387
X4064Y60198
X5080Y52563
X4064Y64262
X10985Y76518
X6858Y65405
X6096Y56388
X6096Y58928
X5080Y53848
X3810Y77978
X12954Y52578
X23749Y52578
X3175Y66548
X6858Y57277
X12319Y67818
X12573Y69088
X5838Y61218
X12700Y71628
X18415Y67818
X80518Y51308
X81788Y51308
X83058Y51308
X84328Y51308
X85598Y51308
X72771Y62992
X69088Y84328
X69088Y83058
X70358Y81788
X70358Y80518
X79248Y79248
X80518Y79248
X81788Y79248
X71628Y74168
X71628Y72898
X71628Y71628
X71628Y70358
X79248Y75438
X79248Y74168
X79248Y72898
X80518Y72898
X81788Y72898
X81788Y74168
X80518Y74168
X80518Y75438
X81788Y75438
X74168Y51308
X75438Y51308
X75438Y50038
X74168Y50038
X72898Y50038
X79248Y61468
X86868Y54483
X88138Y54483
X89408Y54483
X90678Y53848
X82677Y47117
X83947Y47117
X82677Y48387
X83947Y48387
X70612Y60198
X71628Y52563
X70612Y64262
X77534Y76518
X73406Y65405
X72644Y56388
X72644Y58928
X71628Y53848
X70358Y77978
X79502Y52578
X90297Y52578
X69723Y66548
X73406Y57277
X78867Y67818
X79121Y69088
X72386Y61218
X79248Y71628
X18415Y21590
X13970Y97536
X15240Y97536
X16510Y97536
X17780Y97536
X19050Y97536
X6223Y109220
X2540Y130556
X2540Y129286
X3810Y128016
X3810Y126746
X12700Y125476
X13970Y125476
X15240Y125476
X5080Y120396
X5080Y119126
X5080Y117856
X5080Y116586
X12700Y121666
X12700Y120396
X12700Y119126
X13970Y119126
X15240Y119126
X15240Y120396
X13970Y120396
X13970Y121666
X15240Y121666
X7620Y97536
X8890Y97536
X8890Y96266
X7620Y96266
X6350Y96266
X12700Y107696
X20320Y100711
X21590Y100711
X22860Y100711
X24130Y100076
X16129Y93345
X17399Y93345
X16129Y94615
X17399Y94615
X4064Y106426
X5080Y98791
X4064Y110490
X10985Y122745
X6858Y111633
X6096Y102616
X6096Y105156
X5080Y100076
X3810Y124206
X12954Y98806
X23749Y98806
X3175Y112776
X6858Y103505
X12319Y114046
X12573Y115316
X5838Y107446
X12700Y117856
X18415Y114046
X80518Y97536
X81788Y97536
X83058Y97536
X84328Y97536
X85598Y97536
X72771Y109220
X69088Y130556
X69088Y129286
X70358Y128016
X70358Y126746
X79248Y125476
X80518Y125476
X81788Y125476
X71628Y120396
X71628Y119126
X71628Y117856
X71628Y116586
X79248Y121666
X79248Y120396
X79248Y119126
X80518Y119126
X81788Y119126
X81788Y120396
X80518Y120396
X80518Y121666
X81788Y121666
X74168Y97536
X75438Y97536
X75438Y96266
X74168Y96266
X72898Y96266
X79248Y107696
X86868Y100711
X88138Y100711
X89408Y100711
X90678Y100076
X82677Y93345
X83947Y93345
X82677Y94615
X83947Y94615
X70612Y106426
X71628Y98791
X70612Y110490
X77534Y122745
X73406Y111633
X72644Y102616
X72644Y105156
X71628Y100076
X70358Y124206
X79502Y98806
X90297Y98806
X69723Y112776
X73406Y103505
X78867Y114046
X79121Y115316
X72386Y107446
X79248Y117856
X13970Y5080
X15240Y5080
X16510Y5080
X17780Y5080
X19050Y5080
X6223Y16764
X2540Y38100
X2540Y36830
X3810Y35560
X3810Y34290
X12700Y33020
X13970Y33020
X15240Y33020
X5080Y27940
X5080Y26670
X5080Y25400
X5080Y24130
X12700Y29210
X12700Y27940
X12700Y26670
X13970Y26670
X15240Y26670
X15240Y27940
X13970Y27940
X13970Y29210
X15240Y29210
X7620Y5080
X8890Y5080
X8890Y3810
X7620Y3810
X6350Y3810
X12700Y15240
X20320Y8255
X21590Y8255
X22860Y8255
X24130Y7620
X16129Y889
X17399Y889
X16129Y2159
X17399Y2159
X4064Y13970
X5080Y6335
X4064Y18034
X10985Y30289
X6858Y19177
X6096Y10160
X6096Y12700
X5080Y7620
X3810Y31750
X12954Y6350
X23749Y6350
X3175Y20320
X6858Y11049
X12319Y21590
X12573Y22860
X5838Y14990
X12700Y25400
X84963Y67818
X80518Y5080
X81788Y5080
X83058Y5080
X84328Y5080
X85598Y5080
X72771Y16764
X69088Y38100
X69088Y36830
X70358Y35560
X70358Y34290
X79248Y33020
X80518Y33020
X81788Y33020
X71628Y27940
X71628Y26670
X71628Y25400
X71628Y24130
X79248Y29210
X79248Y27940
X79248Y26670
X80518Y26670
X81788Y26670
X81788Y27940
X80518Y27940
X80518Y29210
X81788Y29210
X74168Y5080
X75438Y5080
X75438Y3810
X74168Y3810
X72898Y3810
X79248Y15240
X86868Y8255
X88138Y8255
X89408Y8255
X90678Y7620
X82677Y889
X83947Y889
X82677Y2159
X83947Y2159
X70612Y13970
X71628Y6335
X70612Y18034
X77534Y30289
X73406Y19177
X72644Y10160
X72644Y12700
X71628Y7620
X70358Y31750
X79502Y6350
X90297Y6350
X69723Y20320
X73406Y11049
X78867Y21590
X79121Y22860
X72386Y14990
X84963Y114046
M30