G04 EAGLE Gerber RS-274X export*
G75*
%MOMM*%
%FSLAX34Y34*%
%LPD*%
%INSoldermask Top*%
%IPPOS*%
%AMOC8*
5,1,8,0,0,1.08239X$1,22.5*%
G01*
%ADD10R,0.603200X1.303200*%
%ADD11R,1.303200X1.203200*%
%ADD12R,1.203200X1.303200*%
%ADD13R,1.403200X1.003200*%
%ADD14R,1.003200X2.003200*%
%ADD15R,1.403200X0.803200*%
%ADD16R,1.403200X2.203200*%
%ADD17R,0.803200X1.553200*%
%ADD18R,0.903200X0.903200*%
%ADD19R,0.953200X0.903200*%
%ADD20C,3.505200*%
%ADD21C,2.082800*%
%ADD22R,1.003200X0.503200*%
%ADD23R,1.003200X0.603200*%
%ADD24C,3.203200*%
%ADD25C,0.505344*%
%ADD26C,1.203200*%
%ADD27C,1.270000*%
%ADD28C,1.703200*%


D10*
X85950Y403500D03*
X79450Y403500D03*
X72950Y403500D03*
X66450Y403500D03*
X66450Y358500D03*
X72950Y358500D03*
X79450Y358500D03*
X85950Y358500D03*
D11*
X67700Y332740D03*
X84700Y332740D03*
X84700Y313690D03*
X67700Y313690D03*
D12*
X44450Y389500D03*
X44450Y372500D03*
D13*
X107950Y314850D03*
X107950Y332850D03*
D14*
X67200Y431800D03*
X85200Y431800D03*
D15*
X111700Y292100D03*
X111700Y279400D03*
X111700Y266700D03*
X111700Y254000D03*
X111700Y241300D03*
X111700Y228600D03*
X111700Y215900D03*
X167700Y215900D03*
X167700Y228600D03*
X167700Y241300D03*
X167700Y254000D03*
X167700Y266700D03*
X167700Y279400D03*
X167700Y292100D03*
D16*
X194250Y14050D03*
X250250Y14050D03*
D17*
X207250Y50800D03*
X217250Y50800D03*
X227250Y50800D03*
X237250Y50800D03*
D16*
X86300Y14050D03*
X142300Y14050D03*
D17*
X99300Y50800D03*
X109300Y50800D03*
X119300Y50800D03*
X129300Y50800D03*
D18*
X41000Y152250D03*
X41000Y165250D03*
X22500Y158750D03*
D11*
X23250Y190500D03*
X40250Y190500D03*
X23250Y127000D03*
X40250Y127000D03*
D18*
X41000Y63350D03*
X41000Y76350D03*
X22500Y69850D03*
D12*
X64770Y79620D03*
X64770Y62620D03*
D11*
X23250Y101600D03*
X40250Y101600D03*
D19*
X69450Y265350D03*
X82950Y265350D03*
X82950Y255350D03*
X69450Y255350D03*
D11*
X131200Y317500D03*
X148200Y317500D03*
D12*
X107950Y97400D03*
X107950Y80400D03*
X88900Y97400D03*
X88900Y80400D03*
D11*
X84700Y203200D03*
X67700Y203200D03*
D20*
X635000Y25400D03*
X25400Y431800D03*
X635000Y431800D03*
X25400Y25400D03*
D11*
X67700Y292100D03*
X84700Y292100D03*
X84700Y228600D03*
X67700Y228600D03*
D21*
X228600Y279400D03*
X203200Y279400D03*
X228600Y254000D03*
X203200Y254000D03*
X228600Y228600D03*
X203200Y228600D03*
X12700Y266700D03*
X12700Y292100D03*
X12700Y317500D03*
X12700Y342900D03*
X12700Y215900D03*
X12700Y241300D03*
D22*
X100800Y144860D03*
X100800Y149860D03*
D23*
X125800Y134860D03*
D22*
X100800Y159940D03*
X100800Y154940D03*
D23*
X125800Y169940D03*
D24*
X154940Y384810D03*
X601980Y363220D03*
X595630Y68580D03*
D25*
X144980Y79060D02*
X144980Y86040D01*
X151960Y86040D01*
X151960Y79060D01*
X144980Y79060D01*
X144980Y83860D02*
X151960Y83860D01*
X127440Y86040D02*
X127440Y79060D01*
X127440Y86040D02*
X134420Y86040D01*
X134420Y79060D01*
X127440Y79060D01*
X127440Y83860D02*
X134420Y83860D01*
D11*
X186300Y82550D03*
X169300Y82550D03*
D10*
X751430Y403500D03*
X744930Y403500D03*
X738430Y403500D03*
X731930Y403500D03*
X731930Y358500D03*
X738430Y358500D03*
X744930Y358500D03*
X751430Y358500D03*
D11*
X733180Y332740D03*
X750180Y332740D03*
X750180Y313690D03*
X733180Y313690D03*
D12*
X709930Y389500D03*
X709930Y372500D03*
D13*
X773430Y314850D03*
X773430Y332850D03*
D14*
X732680Y431800D03*
X750680Y431800D03*
D15*
X777180Y292100D03*
X777180Y279400D03*
X777180Y266700D03*
X777180Y254000D03*
X777180Y241300D03*
X777180Y228600D03*
X777180Y215900D03*
X833180Y215900D03*
X833180Y228600D03*
X833180Y241300D03*
X833180Y254000D03*
X833180Y266700D03*
X833180Y279400D03*
X833180Y292100D03*
D16*
X859730Y14050D03*
X915730Y14050D03*
D17*
X872730Y50800D03*
X882730Y50800D03*
X892730Y50800D03*
X902730Y50800D03*
D16*
X751780Y14050D03*
X807780Y14050D03*
D17*
X764780Y50800D03*
X774780Y50800D03*
X784780Y50800D03*
X794780Y50800D03*
D18*
X706480Y152250D03*
X706480Y165250D03*
X687980Y158750D03*
D11*
X688730Y190500D03*
X705730Y190500D03*
X688730Y127000D03*
X705730Y127000D03*
D18*
X706480Y63350D03*
X706480Y76350D03*
X687980Y69850D03*
D12*
X730250Y79620D03*
X730250Y62620D03*
D11*
X688730Y101600D03*
X705730Y101600D03*
D19*
X734930Y265350D03*
X748430Y265350D03*
X748430Y255350D03*
X734930Y255350D03*
D11*
X796680Y317500D03*
X813680Y317500D03*
D12*
X773430Y97400D03*
X773430Y80400D03*
X754380Y97400D03*
X754380Y80400D03*
D11*
X750180Y203200D03*
X733180Y203200D03*
D20*
X1300480Y25400D03*
X690880Y431800D03*
X1300480Y431800D03*
X690880Y25400D03*
D11*
X733180Y292100D03*
X750180Y292100D03*
X750180Y228600D03*
X733180Y228600D03*
D21*
X894080Y279400D03*
X868680Y279400D03*
X894080Y254000D03*
X868680Y254000D03*
X894080Y228600D03*
X868680Y228600D03*
X678180Y266700D03*
X678180Y292100D03*
X678180Y317500D03*
X678180Y342900D03*
X678180Y215900D03*
X678180Y241300D03*
D22*
X766280Y144860D03*
X766280Y149860D03*
D23*
X791280Y134860D03*
D22*
X766280Y159940D03*
X766280Y154940D03*
D23*
X791280Y169940D03*
D24*
X820420Y384810D03*
X1267460Y363220D03*
X1261110Y68580D03*
D25*
X810460Y79060D02*
X810460Y86040D01*
X817440Y86040D01*
X817440Y79060D01*
X810460Y79060D01*
X810460Y83860D02*
X817440Y83860D01*
X792920Y86040D02*
X792920Y79060D01*
X792920Y86040D02*
X799900Y86040D01*
X799900Y79060D01*
X792920Y79060D01*
X792920Y83860D02*
X799900Y83860D01*
D11*
X851780Y82550D03*
X834780Y82550D03*
D10*
X85950Y865780D03*
X79450Y865780D03*
X72950Y865780D03*
X66450Y865780D03*
X66450Y820780D03*
X72950Y820780D03*
X79450Y820780D03*
X85950Y820780D03*
D11*
X67700Y795020D03*
X84700Y795020D03*
X84700Y775970D03*
X67700Y775970D03*
D12*
X44450Y851780D03*
X44450Y834780D03*
D13*
X107950Y777130D03*
X107950Y795130D03*
D14*
X67200Y894080D03*
X85200Y894080D03*
D15*
X111700Y754380D03*
X111700Y741680D03*
X111700Y728980D03*
X111700Y716280D03*
X111700Y703580D03*
X111700Y690880D03*
X111700Y678180D03*
X167700Y678180D03*
X167700Y690880D03*
X167700Y703580D03*
X167700Y716280D03*
X167700Y728980D03*
X167700Y741680D03*
X167700Y754380D03*
D16*
X194250Y476330D03*
X250250Y476330D03*
D17*
X207250Y513080D03*
X217250Y513080D03*
X227250Y513080D03*
X237250Y513080D03*
D16*
X86300Y476330D03*
X142300Y476330D03*
D17*
X99300Y513080D03*
X109300Y513080D03*
X119300Y513080D03*
X129300Y513080D03*
D18*
X41000Y614530D03*
X41000Y627530D03*
X22500Y621030D03*
D11*
X23250Y652780D03*
X40250Y652780D03*
X23250Y589280D03*
X40250Y589280D03*
D18*
X41000Y525630D03*
X41000Y538630D03*
X22500Y532130D03*
D12*
X64770Y541900D03*
X64770Y524900D03*
D11*
X23250Y563880D03*
X40250Y563880D03*
D19*
X69450Y727630D03*
X82950Y727630D03*
X82950Y717630D03*
X69450Y717630D03*
D11*
X131200Y779780D03*
X148200Y779780D03*
D12*
X107950Y559680D03*
X107950Y542680D03*
X88900Y559680D03*
X88900Y542680D03*
D11*
X84700Y665480D03*
X67700Y665480D03*
D20*
X635000Y487680D03*
X25400Y894080D03*
X635000Y894080D03*
X25400Y487680D03*
D11*
X67700Y754380D03*
X84700Y754380D03*
X84700Y690880D03*
X67700Y690880D03*
D21*
X228600Y741680D03*
X203200Y741680D03*
X228600Y716280D03*
X203200Y716280D03*
X228600Y690880D03*
X203200Y690880D03*
X12700Y728980D03*
X12700Y754380D03*
X12700Y779780D03*
X12700Y805180D03*
X12700Y678180D03*
X12700Y703580D03*
D22*
X100800Y607140D03*
X100800Y612140D03*
D23*
X125800Y597140D03*
D22*
X100800Y622220D03*
X100800Y617220D03*
D23*
X125800Y632220D03*
D24*
X154940Y847090D03*
X601980Y825500D03*
X595630Y530860D03*
D25*
X144980Y541340D02*
X144980Y548320D01*
X151960Y548320D01*
X151960Y541340D01*
X144980Y541340D01*
X144980Y546140D02*
X151960Y546140D01*
X127440Y548320D02*
X127440Y541340D01*
X127440Y548320D02*
X134420Y548320D01*
X134420Y541340D01*
X127440Y541340D01*
X127440Y546140D02*
X134420Y546140D01*
D11*
X186300Y544830D03*
X169300Y544830D03*
D10*
X751430Y865780D03*
X744930Y865780D03*
X738430Y865780D03*
X731930Y865780D03*
X731930Y820780D03*
X738430Y820780D03*
X744930Y820780D03*
X751430Y820780D03*
D11*
X733180Y795020D03*
X750180Y795020D03*
X750180Y775970D03*
X733180Y775970D03*
D12*
X709930Y851780D03*
X709930Y834780D03*
D13*
X773430Y777130D03*
X773430Y795130D03*
D14*
X732680Y894080D03*
X750680Y894080D03*
D15*
X777180Y754380D03*
X777180Y741680D03*
X777180Y728980D03*
X777180Y716280D03*
X777180Y703580D03*
X777180Y690880D03*
X777180Y678180D03*
X833180Y678180D03*
X833180Y690880D03*
X833180Y703580D03*
X833180Y716280D03*
X833180Y728980D03*
X833180Y741680D03*
X833180Y754380D03*
D16*
X859730Y476330D03*
X915730Y476330D03*
D17*
X872730Y513080D03*
X882730Y513080D03*
X892730Y513080D03*
X902730Y513080D03*
D16*
X751780Y476330D03*
X807780Y476330D03*
D17*
X764780Y513080D03*
X774780Y513080D03*
X784780Y513080D03*
X794780Y513080D03*
D18*
X706480Y614530D03*
X706480Y627530D03*
X687980Y621030D03*
D11*
X688730Y652780D03*
X705730Y652780D03*
X688730Y589280D03*
X705730Y589280D03*
D18*
X706480Y525630D03*
X706480Y538630D03*
X687980Y532130D03*
D12*
X730250Y541900D03*
X730250Y524900D03*
D11*
X688730Y563880D03*
X705730Y563880D03*
D19*
X734930Y727630D03*
X748430Y727630D03*
X748430Y717630D03*
X734930Y717630D03*
D11*
X796680Y779780D03*
X813680Y779780D03*
D12*
X773430Y559680D03*
X773430Y542680D03*
X754380Y559680D03*
X754380Y542680D03*
D11*
X750180Y665480D03*
X733180Y665480D03*
D20*
X1300480Y487680D03*
X690880Y894080D03*
X1300480Y894080D03*
X690880Y487680D03*
D11*
X733180Y754380D03*
X750180Y754380D03*
X750180Y690880D03*
X733180Y690880D03*
D21*
X894080Y741680D03*
X868680Y741680D03*
X894080Y716280D03*
X868680Y716280D03*
X894080Y690880D03*
X868680Y690880D03*
X678180Y728980D03*
X678180Y754380D03*
X678180Y779780D03*
X678180Y805180D03*
X678180Y678180D03*
X678180Y703580D03*
D22*
X766280Y607140D03*
X766280Y612140D03*
D23*
X791280Y597140D03*
D22*
X766280Y622220D03*
X766280Y617220D03*
D23*
X791280Y632220D03*
D24*
X820420Y847090D03*
X1267460Y825500D03*
X1261110Y530860D03*
D25*
X810460Y541340D02*
X810460Y548320D01*
X817440Y548320D01*
X817440Y541340D01*
X810460Y541340D01*
X810460Y546140D02*
X817440Y546140D01*
X792920Y548320D02*
X792920Y541340D01*
X792920Y548320D02*
X799900Y548320D01*
X799900Y541340D01*
X792920Y541340D01*
X792920Y546140D02*
X799900Y546140D01*
D11*
X851780Y544830D03*
X834780Y544830D03*
D10*
X85950Y1328060D03*
X79450Y1328060D03*
X72950Y1328060D03*
X66450Y1328060D03*
X66450Y1283060D03*
X72950Y1283060D03*
X79450Y1283060D03*
X85950Y1283060D03*
D11*
X67700Y1257300D03*
X84700Y1257300D03*
X84700Y1238250D03*
X67700Y1238250D03*
D12*
X44450Y1314060D03*
X44450Y1297060D03*
D13*
X107950Y1239410D03*
X107950Y1257410D03*
D14*
X67200Y1356360D03*
X85200Y1356360D03*
D15*
X111700Y1216660D03*
X111700Y1203960D03*
X111700Y1191260D03*
X111700Y1178560D03*
X111700Y1165860D03*
X111700Y1153160D03*
X111700Y1140460D03*
X167700Y1140460D03*
X167700Y1153160D03*
X167700Y1165860D03*
X167700Y1178560D03*
X167700Y1191260D03*
X167700Y1203960D03*
X167700Y1216660D03*
D16*
X194250Y938610D03*
X250250Y938610D03*
D17*
X207250Y975360D03*
X217250Y975360D03*
X227250Y975360D03*
X237250Y975360D03*
D16*
X86300Y938610D03*
X142300Y938610D03*
D17*
X99300Y975360D03*
X109300Y975360D03*
X119300Y975360D03*
X129300Y975360D03*
D18*
X41000Y1076810D03*
X41000Y1089810D03*
X22500Y1083310D03*
D11*
X23250Y1115060D03*
X40250Y1115060D03*
X23250Y1051560D03*
X40250Y1051560D03*
D18*
X41000Y987910D03*
X41000Y1000910D03*
X22500Y994410D03*
D12*
X64770Y1004180D03*
X64770Y987180D03*
D11*
X23250Y1026160D03*
X40250Y1026160D03*
D19*
X69450Y1189910D03*
X82950Y1189910D03*
X82950Y1179910D03*
X69450Y1179910D03*
D11*
X131200Y1242060D03*
X148200Y1242060D03*
D12*
X107950Y1021960D03*
X107950Y1004960D03*
X88900Y1021960D03*
X88900Y1004960D03*
D11*
X84700Y1127760D03*
X67700Y1127760D03*
D20*
X635000Y949960D03*
X25400Y1356360D03*
X635000Y1356360D03*
X25400Y949960D03*
D11*
X67700Y1216660D03*
X84700Y1216660D03*
X84700Y1153160D03*
X67700Y1153160D03*
D21*
X228600Y1203960D03*
X203200Y1203960D03*
X228600Y1178560D03*
X203200Y1178560D03*
X228600Y1153160D03*
X203200Y1153160D03*
X12700Y1191260D03*
X12700Y1216660D03*
X12700Y1242060D03*
X12700Y1267460D03*
X12700Y1140460D03*
X12700Y1165860D03*
D22*
X100800Y1069420D03*
X100800Y1074420D03*
D23*
X125800Y1059420D03*
D22*
X100800Y1084500D03*
X100800Y1079500D03*
D23*
X125800Y1094500D03*
D24*
X154940Y1309370D03*
X601980Y1287780D03*
X595630Y993140D03*
D25*
X144980Y1003620D02*
X144980Y1010600D01*
X151960Y1010600D01*
X151960Y1003620D01*
X144980Y1003620D01*
X144980Y1008420D02*
X151960Y1008420D01*
X127440Y1010600D02*
X127440Y1003620D01*
X127440Y1010600D02*
X134420Y1010600D01*
X134420Y1003620D01*
X127440Y1003620D01*
X127440Y1008420D02*
X134420Y1008420D01*
D11*
X186300Y1007110D03*
X169300Y1007110D03*
D10*
X751430Y1328060D03*
X744930Y1328060D03*
X738430Y1328060D03*
X731930Y1328060D03*
X731930Y1283060D03*
X738430Y1283060D03*
X744930Y1283060D03*
X751430Y1283060D03*
D11*
X733180Y1257300D03*
X750180Y1257300D03*
X750180Y1238250D03*
X733180Y1238250D03*
D12*
X709930Y1314060D03*
X709930Y1297060D03*
D13*
X773430Y1239410D03*
X773430Y1257410D03*
D14*
X732680Y1356360D03*
X750680Y1356360D03*
D15*
X777180Y1216660D03*
X777180Y1203960D03*
X777180Y1191260D03*
X777180Y1178560D03*
X777180Y1165860D03*
X777180Y1153160D03*
X777180Y1140460D03*
X833180Y1140460D03*
X833180Y1153160D03*
X833180Y1165860D03*
X833180Y1178560D03*
X833180Y1191260D03*
X833180Y1203960D03*
X833180Y1216660D03*
D16*
X859730Y938610D03*
X915730Y938610D03*
D17*
X872730Y975360D03*
X882730Y975360D03*
X892730Y975360D03*
X902730Y975360D03*
D16*
X751780Y938610D03*
X807780Y938610D03*
D17*
X764780Y975360D03*
X774780Y975360D03*
X784780Y975360D03*
X794780Y975360D03*
D18*
X706480Y1076810D03*
X706480Y1089810D03*
X687980Y1083310D03*
D11*
X688730Y1115060D03*
X705730Y1115060D03*
X688730Y1051560D03*
X705730Y1051560D03*
D18*
X706480Y987910D03*
X706480Y1000910D03*
X687980Y994410D03*
D12*
X730250Y1004180D03*
X730250Y987180D03*
D11*
X688730Y1026160D03*
X705730Y1026160D03*
D19*
X734930Y1189910D03*
X748430Y1189910D03*
X748430Y1179910D03*
X734930Y1179910D03*
D11*
X796680Y1242060D03*
X813680Y1242060D03*
D12*
X773430Y1021960D03*
X773430Y1004960D03*
X754380Y1021960D03*
X754380Y1004960D03*
D11*
X750180Y1127760D03*
X733180Y1127760D03*
D20*
X1300480Y949960D03*
X690880Y1356360D03*
X1300480Y1356360D03*
X690880Y949960D03*
D11*
X733180Y1216660D03*
X750180Y1216660D03*
X750180Y1153160D03*
X733180Y1153160D03*
D21*
X894080Y1203960D03*
X868680Y1203960D03*
X894080Y1178560D03*
X868680Y1178560D03*
X894080Y1153160D03*
X868680Y1153160D03*
X678180Y1191260D03*
X678180Y1216660D03*
X678180Y1242060D03*
X678180Y1267460D03*
X678180Y1140460D03*
X678180Y1165860D03*
D22*
X766280Y1069420D03*
X766280Y1074420D03*
D23*
X791280Y1059420D03*
D22*
X766280Y1084500D03*
X766280Y1079500D03*
D23*
X791280Y1094500D03*
D24*
X820420Y1309370D03*
X1267460Y1287780D03*
X1261110Y993140D03*
D25*
X810460Y1003620D02*
X810460Y1010600D01*
X817440Y1010600D01*
X817440Y1003620D01*
X810460Y1003620D01*
X810460Y1008420D02*
X817440Y1008420D01*
X792920Y1010600D02*
X792920Y1003620D01*
X792920Y1010600D02*
X799900Y1010600D01*
X799900Y1003620D01*
X792920Y1003620D01*
X792920Y1008420D02*
X799900Y1008420D01*
D11*
X851780Y1007110D03*
X834780Y1007110D03*
D26*
X68580Y1402715D03*
X1256665Y1402715D03*
D27*
X59525Y-20955D02*
X59528Y-20733D01*
X59536Y-20511D01*
X59550Y-20289D01*
X59569Y-20067D01*
X59593Y-19847D01*
X59623Y-19626D01*
X59658Y-19407D01*
X59699Y-19188D01*
X59745Y-18971D01*
X59796Y-18755D01*
X59853Y-18540D01*
X59915Y-18326D01*
X59982Y-18115D01*
X60054Y-17904D01*
X60132Y-17696D01*
X60214Y-17490D01*
X60302Y-17286D01*
X60394Y-17083D01*
X60492Y-16884D01*
X60594Y-16687D01*
X60701Y-16492D01*
X60813Y-16300D01*
X60930Y-16111D01*
X61051Y-15924D01*
X61177Y-15741D01*
X61307Y-15561D01*
X61442Y-15384D01*
X61580Y-15211D01*
X61723Y-15041D01*
X61871Y-14874D01*
X62022Y-14711D01*
X62177Y-14552D01*
X62336Y-14397D01*
X62499Y-14246D01*
X62666Y-14098D01*
X62836Y-13955D01*
X63009Y-13817D01*
X63186Y-13682D01*
X63366Y-13552D01*
X63549Y-13426D01*
X63736Y-13305D01*
X63925Y-13188D01*
X64117Y-13076D01*
X64312Y-12969D01*
X64509Y-12867D01*
X64708Y-12769D01*
X64911Y-12677D01*
X65115Y-12589D01*
X65321Y-12507D01*
X65529Y-12429D01*
X65740Y-12357D01*
X65951Y-12290D01*
X66165Y-12228D01*
X66380Y-12171D01*
X66596Y-12120D01*
X66813Y-12074D01*
X67032Y-12033D01*
X67251Y-11998D01*
X67472Y-11968D01*
X67692Y-11944D01*
X67914Y-11925D01*
X68136Y-11911D01*
X68358Y-11903D01*
X68580Y-11900D01*
X68802Y-11903D01*
X69024Y-11911D01*
X69246Y-11925D01*
X69468Y-11944D01*
X69688Y-11968D01*
X69909Y-11998D01*
X70128Y-12033D01*
X70347Y-12074D01*
X70564Y-12120D01*
X70780Y-12171D01*
X70995Y-12228D01*
X71209Y-12290D01*
X71420Y-12357D01*
X71631Y-12429D01*
X71839Y-12507D01*
X72045Y-12589D01*
X72249Y-12677D01*
X72452Y-12769D01*
X72651Y-12867D01*
X72848Y-12969D01*
X73043Y-13076D01*
X73235Y-13188D01*
X73424Y-13305D01*
X73611Y-13426D01*
X73794Y-13552D01*
X73974Y-13682D01*
X74151Y-13817D01*
X74324Y-13955D01*
X74494Y-14098D01*
X74661Y-14246D01*
X74824Y-14397D01*
X74983Y-14552D01*
X75138Y-14711D01*
X75289Y-14874D01*
X75437Y-15041D01*
X75580Y-15211D01*
X75718Y-15384D01*
X75853Y-15561D01*
X75983Y-15741D01*
X76109Y-15924D01*
X76230Y-16111D01*
X76347Y-16300D01*
X76459Y-16492D01*
X76566Y-16687D01*
X76668Y-16884D01*
X76766Y-17083D01*
X76858Y-17286D01*
X76946Y-17490D01*
X77028Y-17696D01*
X77106Y-17904D01*
X77178Y-18115D01*
X77245Y-18326D01*
X77307Y-18540D01*
X77364Y-18755D01*
X77415Y-18971D01*
X77461Y-19188D01*
X77502Y-19407D01*
X77537Y-19626D01*
X77567Y-19847D01*
X77591Y-20067D01*
X77610Y-20289D01*
X77624Y-20511D01*
X77632Y-20733D01*
X77635Y-20955D01*
X77632Y-21177D01*
X77624Y-21399D01*
X77610Y-21621D01*
X77591Y-21843D01*
X77567Y-22063D01*
X77537Y-22284D01*
X77502Y-22503D01*
X77461Y-22722D01*
X77415Y-22939D01*
X77364Y-23155D01*
X77307Y-23370D01*
X77245Y-23584D01*
X77178Y-23795D01*
X77106Y-24006D01*
X77028Y-24214D01*
X76946Y-24420D01*
X76858Y-24624D01*
X76766Y-24827D01*
X76668Y-25026D01*
X76566Y-25223D01*
X76459Y-25418D01*
X76347Y-25610D01*
X76230Y-25799D01*
X76109Y-25986D01*
X75983Y-26169D01*
X75853Y-26349D01*
X75718Y-26526D01*
X75580Y-26699D01*
X75437Y-26869D01*
X75289Y-27036D01*
X75138Y-27199D01*
X74983Y-27358D01*
X74824Y-27513D01*
X74661Y-27664D01*
X74494Y-27812D01*
X74324Y-27955D01*
X74151Y-28093D01*
X73974Y-28228D01*
X73794Y-28358D01*
X73611Y-28484D01*
X73424Y-28605D01*
X73235Y-28722D01*
X73043Y-28834D01*
X72848Y-28941D01*
X72651Y-29043D01*
X72452Y-29141D01*
X72249Y-29233D01*
X72045Y-29321D01*
X71839Y-29403D01*
X71631Y-29481D01*
X71420Y-29553D01*
X71209Y-29620D01*
X70995Y-29682D01*
X70780Y-29739D01*
X70564Y-29790D01*
X70347Y-29836D01*
X70128Y-29877D01*
X69909Y-29912D01*
X69688Y-29942D01*
X69468Y-29966D01*
X69246Y-29985D01*
X69024Y-29999D01*
X68802Y-30007D01*
X68580Y-30010D01*
X68358Y-30007D01*
X68136Y-29999D01*
X67914Y-29985D01*
X67692Y-29966D01*
X67472Y-29942D01*
X67251Y-29912D01*
X67032Y-29877D01*
X66813Y-29836D01*
X66596Y-29790D01*
X66380Y-29739D01*
X66165Y-29682D01*
X65951Y-29620D01*
X65740Y-29553D01*
X65529Y-29481D01*
X65321Y-29403D01*
X65115Y-29321D01*
X64911Y-29233D01*
X64708Y-29141D01*
X64509Y-29043D01*
X64312Y-28941D01*
X64117Y-28834D01*
X63925Y-28722D01*
X63736Y-28605D01*
X63549Y-28484D01*
X63366Y-28358D01*
X63186Y-28228D01*
X63009Y-28093D01*
X62836Y-27955D01*
X62666Y-27812D01*
X62499Y-27664D01*
X62336Y-27513D01*
X62177Y-27358D01*
X62022Y-27199D01*
X61871Y-27036D01*
X61723Y-26869D01*
X61580Y-26699D01*
X61442Y-26526D01*
X61307Y-26349D01*
X61177Y-26169D01*
X61051Y-25986D01*
X60930Y-25799D01*
X60813Y-25610D01*
X60701Y-25418D01*
X60594Y-25223D01*
X60492Y-25026D01*
X60394Y-24827D01*
X60302Y-24624D01*
X60214Y-24420D01*
X60132Y-24214D01*
X60054Y-24006D01*
X59982Y-23795D01*
X59915Y-23584D01*
X59853Y-23370D01*
X59796Y-23155D01*
X59745Y-22939D01*
X59699Y-22722D01*
X59658Y-22503D01*
X59623Y-22284D01*
X59593Y-22063D01*
X59569Y-21843D01*
X59550Y-21621D01*
X59536Y-21399D01*
X59528Y-21177D01*
X59525Y-20955D01*
D28*
X68580Y-20955D03*
M02*
